PathFileType	4	(X/Y/Z)	C:\Users\Basilio\Documents\Thesis Gigler\squatting_fais\c3dfiles\041\SLS_pre_back3\markers_experimental.trc
DataRate	CameraRate	NumFrames	NumMarkers	Units	OrigDataRate	OrigDataStartFrame	OrigNumFrames
200.000000	200.000000	4	62	mm	200.000000	931	1490
Frame#	Time	FHD			LBHD			RBHD			C7			T10			CLAV			LSHO			LUUPA			LMUPA			LDUPA			LLEP			LMEP			LRAD			LUL			LRFIN			RSHO			RUPA1			RMUPA			RDUPA			RLEP			RMEP			RRAD			RUL			RUFIN			LASI			RASI			USACR			LSACR			RSACR			LTHI1			LTHI2			LTHI3			LTHI4			LLFC			LMFC			LTIB1			LTIB2			LTIB3			LTIB4			LLMAL			LMMAL			LHEE			LMT1			LMT2			LMT5			RTHI			RTHI2			RTHI3			RTHI4			RLFC			RMFC			RTIB1			RTIB2			RTIB3			RTIB4			RLMAL			RMMAL			RHEE			RMT1			RMT2			RMT5			*61			
		X1	Y1	Z1	X2	Y2	Z2	X3	Y3	Z3	X4	Y4	Z4	X5	Y5	Z5	X6	Y6	Z6	X7	Y7	Z7	X8	Y8	Z8	X9	Y9	Z9	X10	Y10	Z10	X11	Y11	Z11	X12	Y12	Z12	X13	Y13	Z13	X14	Y14	Z14	X15	Y15	Z15	X16	Y16	Z16	X17	Y17	Z17	X18	Y18	Z18	X19	Y19	Z19	X20	Y20	Z20	X21	Y21	Z21	X22	Y22	Z22	X23	Y23	Z23	X24	Y24	Z24	X25	Y25	Z25	X26	Y26	Z26	X27	Y27	Z27	X28	Y28	Z28	X29	Y29	Z29	X30	Y30	Z30	X31	Y31	Z31	X32	Y32	Z32	X33	Y33	Z33	X34	Y34	Z34	X35	Y35	Z35	X36	Y36	Z36	X37	Y37	Z37	X38	Y38	Z38	X39	Y39	Z39	X40	Y40	Z40	X41	Y41	Z41	X42	Y42	Z42	X43	Y43	Z43	X44	Y44	Z44	X45	Y45	Z45	X46	Y46	Z46	X47	Y47	Z47	X48	Y48	Z48	X49	Y49	Z49	X50	Y50	Z50	X51	Y51	Z51	X52	Y52	Z52	X53	Y53	Z53	X54	Y54	Z54	X55	Y55	Z55	X56	Y56	Z56	X57	Y57	Z57	X58	Y58	Z58	X59	Y59	Z59	X60	Y60	Z60	X61	Y61	Z61	X62	Y62	Z62	

932	4.655	10.61831569671631	1435.349853515625	-1104.211669921875	-181.622055053711	1385.165771484375	-1153.643920898438	-142.9002227783203	1398.264038085938	-1005.421997070313	-238.5889739990235	1295.59814453125	-1073.001342773438	-434.7084350585939	1059.820922851563	-1064.162353515625	-124.4095001220703	1178.924682617188	-1084.172485351563	-152.4835357666016	1285.8837890625	-1209.620483398438	-87.83715820312501	1297.874877929688	-1361.462158203125	-39.78100204467774	1299.506958007813	-1356.020751953125	-46.64767837524415	1294.472778320313	-1417.64013671875	-14.94854354858399	1287.376220703125	-1449.694213867188	30.32058715820313	1215.050903320313	-1433.840576171875	218.5931854248047	1299.730590820313	-1591.61962890625	168.623046875	1314.693481445313	-1643.989624023438	274.0508728027344	1340.08349609375	-1628.632080078125	-162.0569305419922	1276.81396484375	-955.4982910156252	-26.00598335266114	1261.176879882813	-837.6172485351565	-6.990577697753908	1287.70654296875	-877.2358398437502	41.99455261230469	1281.40380859375	-843.0197753906252	87.30957031250001	1283.842529296875	-845.200378417969	107.6121597290039	1205.165771484375	-871.5279541015627	342.6986694335938	1299.384765625	-930.4637451171877	350.7580261230469	1309.7724609375	-855.6607666015627	422.5713195800782	1323.371826171875	-945.083679199219	-357.2243957519532	834.875671386719	-1158.016479492188	-412.9072875976564	809.888610839844	-943.8286743164065	-511.8706970214845	965.2139282226565	-1068.962280273438	-533.0912475585939	951.2737426757815	-1102.574096679688	-544.2698364257814	945.7415161132815	-1048.195678710938	-385.773895263672	685.7001342773439	-1229.944702148438	-309.6281738281251	656.1777343750001	-1205.260498046875	-279.5236816406251	689.1226196289064	-1189.666870117188	-295.2499389648438	598.0526123046876	-1192.011352539063	-182.178939819336	481.9931030273439	-1132.472900390625	-203.2185821533204	478.2042846679689	-1021.391296386719	-223.5662536621094	304.3760986328126	-1063.102661132813	-270.5962219238282	274.8681030273438	-1134.349609375	-243.0097351074219	261.5383911132813	-1101.570922851563	-283.0882873535157	194.5999603271485	-1067.602661132813	-367.1888732910157	126.9099502563477	-1123.568603515625	-342.5941467285157	129.8134002685547	-1033.366943359375	-441.6123962402345	109.413200378418	-1092.713012695313	-240.0683746337891	59.44782638549806	-1045.091186523438	-228.0156860351563	61.84331130981447	-1088.39990234375	-270.6874084472657	52.5006446838379	-1147.8271484375	-609.1485595703126	588.6588134765626	-923.1472167968752	-589.2763671875001	525.6967773437501	-925.3663330078127	-557.9007568359376	516.4983520507814	-929.5266723632815	-638.6206665039064	460.9011535644532	-951.9241333007815	-674.3806152343751	370.3684387207032	-963.0825195312502	-674.9968872070314	356.3253479003907	-1079.584838867188	-824.5446777343752	311.4015197753907	-987.0845336914065	-910.1558227539065	387.0538940429689	-967.5104980468752	-906.5878906250002	340.4331970214844	-975.0518798828127	-950.4375610351565	316.9668273925782	-1007.007263183594	-1077.051879882813	354.5611267089844	-994.1782836914065	-1042.9423828125	345.7829589843751	-1072.338745117188	-1128.10693359375	410.3281860351564	-1036.5712890625	-1066.727661132813	208.7587585449219	-1092.609741210938	-1071.320678710938	190.0274353027344	-1042.37109375	-1115.153686523438	213.3576202392579	-996.779724121094	-4217.072265625001	853.1855468750002	-3944.791015625001	
933	4.66	10.7187032699585	1435.135131835938	-1103.972412109375	-181.5351715087891	1385.094848632813	-1153.42041015625	-142.6903381347657	1397.993041992188	-1005.24462890625	-238.4387512207032	1295.4462890625	-1072.86279296875	-434.637908935547	1059.696411132813	-1064.1923828125	-124.334342956543	1178.791381835938	-1084.0849609375	-152.3438568115235	1285.683715820313	-1209.434936523438	-87.72303771972658	1297.765502929688	-1361.340698242188	-39.21910476684571	1299.12255859375	-1355.786987304688	-46.32805252075196	1294.276000976563	-1417.462768554688	-14.69780349731446	1287.135620117188	-1449.456298828125	30.31583786010743	1214.935546875	-1433.742919921875	218.496566772461	1299.49951171875	-1591.506469726563	168.631332397461	1314.557006835938	-1643.90625	274.1042175292969	1339.848266601563	-1628.66552734375	-161.9947052001953	1276.673950195313	-955.3174438476565	-25.81965255737305	1260.998901367188	-837.4883422851565	-6.951118946075441	1287.474365234375	-877.101501464844	42.14974594116212	1281.138916015625	-842.9207153320315	87.26114654541017	1283.63916015625	-845.1092529296877	107.6555709838867	1204.874267578125	-871.5031738281252	342.2241821289063	1299.372924804688	-930.5217285156252	350.9013366699219	1309.47265625	-855.6824340820315	422.5760498046876	1323.062377929688	-945.1896972656252	-357.1107788085938	834.8803710937502	-1158.125610351563	-412.7534179687501	809.7503662109377	-943.9013671875002	-511.8128967285157	965.115661621094	-1069.004760742188	-533.0396728515626	951.2408447265627	-1102.650268554688	-544.2045288085939	945.6813964843752	-1048.273193359375	-385.6248474121095	685.6295776367189	-1230.041137695313	-309.5258178710938	656.0921630859376	-1205.321655273438	-279.5082702636719	689.0989990234376	-1189.700317382813	-295.1134338378907	598.0363159179689	-1192.026611328125	-182.0694885253907	481.9502258300782	-1132.390380859375	-203.2258605957032	478.1356506347657	-1021.283020019531	-223.5364532470704	304.3810424804688	-1062.974243164063	-270.5059814453126	274.8369750976563	-1134.261108398438	-243.0594482421876	261.3805236816407	-1101.467163085938	-283.1078491210938	194.5409545898438	-1067.5146484375	-367.2074890136719	126.9284591674805	-1123.562866210938	-342.6026000976563	129.6971893310547	-1033.29931640625	-441.6700439453126	109.6088256835938	-1092.631713867188	-239.8863830566407	59.30192947387697	-1045.07470703125	-228.0772552490235	62.14595794677736	-1088.26611328125	-270.6765747070313	52.49887466430665	-1147.84521484375	-609.1862182617189	588.4732055664064	-923.4968261718752	-589.2763671875001	525.3147583007814	-925.8680419921877	-557.9183959960939	516.4020996093751	-929.9023437500002	-638.5761108398439	460.7257690429689	-952.5198974609377	-674.3609619140626	370.2898864746094	-963.7522583007815	-674.8083496093751	356.2448730468751	-1080.18310546875	-824.5310668945315	311.2699890136719	-987.6836547851565	-910.1158447265627	386.6770019531251	-968.3060302734377	-906.5368652343752	340.0314941406251	-975.894958496094	-950.2598876953127	316.4537353515626	-1007.877380371094	-1076.878051757813	354.1387939453126	-995.311462402344	-1042.677368164063	345.5368347167969	-1073.321166992188	-1128.047241210938	409.9956970214845	-1037.520385742188	-1066.168212890625	208.1659851074219	-1093.554565429688	-1071.176513671875	189.7120361328125	-1043.716430664063	-1115.014770507813	212.7979278564454	-998.3876953125002	-4216.786621093751	853.1239013671877	-3944.664062500001	
934	4.665	11.23117733001709	1434.918823242188	-1103.591186523438	-181.3567047119141	1385.045654296875	-1153.185180664063	-142.3916168212891	1397.804321289063	-1005.076599121094	-238.3036499023438	1295.307373046875	-1072.620849609375	-434.5990295410157	1059.628173828125	-1064.12744140625	-124.5862579345703	1178.555786132813	-1083.966796875	-152.3781127929688	1285.526977539063	-1209.262329101563	-87.70761108398439	1297.622680664063	-1361.244384765625	-39.70778274536134	1299.2373046875	-1355.765869140625	-46.35992431640626	1294.20703125	-1417.271240234375	-14.6684741973877	1287.073852539063	-1449.357543945313	30.33995246887208	1214.841552734375	-1433.735107421875	218.4535522460938	1299.36328125	-1591.439086914063	168.6009063720703	1314.509033203125	-1643.819580078125	274.1298217773438	1339.640380859375	-1628.649047851563	-161.8962554931641	1276.369384765625	-955.1787719726565	-25.65297317504884	1260.649169921875	-837.353942871094	-6.815832614898683	1287.196166992188	-877.010681152344	42.30980300903321	1280.812133789063	-842.8337402343752	87.21376800537111	1283.372314453125	-844.9495239257815	107.7687911987305	1204.641723632813	-871.4619140625002	342.2124938964844	1299.120361328125	-930.5068969726565	351.0494995117188	1309.132202148438	-855.6880493164065	422.5379333496095	1322.7998046875	-945.2847290039065	-356.9982910156251	834.790222167969	-1158.139892578125	-412.7374572753907	809.6312255859377	-943.9419555664065	-511.734832763672	965.0528564453127	-1069.066040039063	-532.9252319335939	951.1484375000002	-1102.712036132813	-544.1309814453126	945.5856933593752	-1048.291259765625	-385.5062866210939	685.5360717773439	-1230.054931640625	-309.4191589355469	656.0192260742189	-1205.279663085938	-279.4057617187501	689.0410766601564	-1189.667236328125	-295.0622863769532	597.8805541992189	-1191.968505859375	-182.041748046875	481.8229370117189	-1132.324340820313	-203.2088623046876	478.1339416503907	-1021.245849609375	-223.5013122558594	304.2953796386719	-1062.83935546875	-270.4178771972657	274.7854003906251	-1134.208251953125	-243.2184448242188	261.2369995117188	-1101.094482421875	-283.0953674316407	194.5438995361329	-1067.484619140625	-367.1368103027344	126.8828964233399	-1123.530517578125	-342.5607910156251	129.7302398681641	-1033.284912109375	-441.605926513672	109.4105529785157	-1092.678833007813	-239.8499450683594	59.28520584106447	-1045.072143554688	-228.0717010498047	62.15918731689455	-1088.209716796875	-270.2527770996094	52.23397827148439	-1147.672729492188	-609.1100463867189	588.2407836914064	-923.8892211914065	-589.2354125976564	525.3383789062501	-926.3577880859377	-557.7698364257814	516.2130737304689	-930.4666137695315	-638.5569458007814	460.5784301757814	-953.1499023437502	-674.3479614257814	370.1951293945313	-964.3704833984377	-674.5908813476564	356.2450561523438	-1080.973754882813	-824.5329589843752	311.0418090820313	-988.074401855469	-909.9431762695315	386.3570861816407	-969.2888183593752	-906.4456176757815	339.7654418945313	-976.6873779296877	-950.0791015625002	316.0376281738282	-1008.872985839844	-1076.959228515625	353.7499389648438	-995.9871215820315	-1042.473266601563	345.1873474121094	-1074.266967773438	-1127.913818359375	409.5965881347657	-1038.472534179688	-1065.8662109375	207.9038696289063	-1095.093994140625	-1071.12353515625	189.2435150146485	-1045.275512695313	-1114.711669921875	212.2906188964844	-1000.184509277344	-4216.843750000001	853.1342773437502	-3944.657226562501	
935	4.67	11.57782745361328	1434.61181640625	-1103.35205078125	-181.1067810058594	1384.93798828125	-1153.0302734375	-142.2396850585938	1397.59130859375	-1004.822998046875	-238.1377563476563	1295.155883789063	-1072.490966796875	-434.5228881835939	1059.517578125	-1064.130126953125	-124.2429275512696	1178.482666015625	-1083.849609375	-152.2942352294922	1285.441162109375	-1209.12841796875	-87.64718627929689	1297.68896484375	-1361.12841796875	-39.18090057373048	1298.868286132813	-1355.481567382813	-46.38408279418946	1294.168334960938	-1417.256958007813	-14.76904582977295	1287.131713867188	-1449.313354492188	30.41702270507813	1214.800415039063	-1433.637573242188	218.4638977050782	1299.290893554688	-1591.399291992188	168.6041107177735	1314.460571289063	-1643.760498046875	274.0848388671876	1339.560180664063	-1628.567016601563	-162.0143585205078	1276.126586914063	-954.930114746094	-25.45313262939454	1260.40185546875	-837.261169433594	-6.683751583099367	1286.90185546875	-876.843933105469	42.40291976928712	1280.447021484375	-842.715270996094	87.21492767333986	1283.02294921875	-844.6697387695315	107.9417419433594	1204.282958984375	-871.3909912109377	342.3536376953126	1298.861206054688	-930.5491333007815	351.0659484863282	1308.777465820313	-855.875915527344	422.4983215332032	1322.6181640625	-945.3560180664065	-357.1001892089844	834.4729003906252	-1158.28271484375	-412.7021484375001	809.3762817382815	-943.989929199219	-511.6349182128907	964.9632568359377	-1069.159301757813	-532.8456420898439	951.1083984375002	-1102.800048828125	-544.0600585937501	945.5808715820315	-1048.335083007813	-385.3210754394532	685.4960327148439	-1230.135009765625	-309.2817382812501	656.0122680664064	-1205.26220703125	-279.2705383300782	689.0289306640626	-1189.635375976563	-294.7776489257813	597.8942260742189	-1192.016357421875	-182.0195770263672	481.7789001464845	-1132.220336914063	-203.1979675292969	478.0566711425782	-1021.202270507813	-223.522689819336	304.1971435546876	-1062.728271484375	-270.4265747070313	274.7478637695313	-1134.115600585938	-243.1070251464844	261.1957702636719	-1101.17041015625	-283.0592651367188	194.5314941406251	-1067.440795898438	-367.1325988769532	126.8992767333985	-1123.463256835938	-342.5747680664063	129.5899353027344	-1033.22607421875	-441.5672302246095	109.3668518066407	-1092.7060546875	-239.8641052246094	59.29074859619142	-1045.064697265625	-228.075912475586	62.16415786743165	-1088.21484375	-270.6414794921876	52.53408050537111	-1147.833862304688	-609.1058349609376	588.0314941406251	-924.219421386719	-589.1975708007814	525.2183837890626	-926.8183593750002	-557.8314208984376	515.9783935546876	-930.979187011719	-638.4971313476564	460.4627380371095	-953.8061523437502	-674.3905639648439	369.9247436523438	-964.7858886718752	-674.4558105468751	356.1988525390626	-1081.75830078125	-824.3027343750002	310.6697082519532	-989.320007324219	-910.0021972656252	386.1015625000001	-969.9340820312502	-906.4412231445315	339.5791320800782	-977.4949340820315	-950.2259521484377	315.7666625976563	-1009.636840820313	-1076.958984375	353.0411071777344	-996.8343505859377	-1042.150390625	344.9981079101563	-1075.37744140625	-1127.802368164063	409.2500000000001	-1039.375610351563	-1065.973999023438	208.1697998046876	-1096.730590820313	-1070.773681640625	188.9928131103516	-1046.8408203125	-1114.673461914063	211.8515625000001	-1001.268432617188	-4217.058593750001	853.0944824218752	-3944.661132812501	
